<svg width="112" height="91" viewBox="0 0 112 91" fill="none" xmlns="http://www.w3.org/2000/svg">
<g id="Group 117">
<g id="Subtract">
<path d="M55.2655 11.5539C56.0663 12.0173 57.1 11.8007 57.6046 11.0252L59.5351 8.05849C60.1546 7.10657 59.8904 5.8294 58.9074 5.26055C57.9244 4.69171 56.6798 5.09621 56.1634 6.10772L54.5539 9.26015C54.1332 10.0842 54.4647 11.0905 55.2655 11.5539Z" fill="#FFD400"/>
<path d="M39.2644 7.27118C40.1897 7.27118 40.9778 6.56509 41.0255 5.64094L41.2081 2.10022C41.2664 0.969424 40.3967 0 39.2644 0C38.1321 0 37.2623 0.969426 37.3207 2.10022L37.5033 5.64094C37.5509 6.56509 38.339 7.27118 39.2644 7.27118Z" fill="#FFD400"/>
<path d="M23.2632 11.5539C24.064 11.0905 24.3955 10.0842 23.9748 9.26015L22.3654 6.10772C21.8489 5.09621 20.6043 4.69171 19.6213 5.26056C18.6383 5.8294 18.3741 7.10657 18.9936 8.05849L20.9241 11.0252C21.4287 11.8007 22.4624 12.0173 23.2632 11.5539Z" fill="#FFD400"/>
<path d="M11.5539 23.2632C12.0173 22.4624 11.8007 21.4287 11.0252 20.9241L8.05849 18.9936C7.10657 18.3741 5.8294 18.6383 5.26055 19.6213C4.69171 20.6043 5.09621 21.8489 6.10772 22.3654L9.26015 23.9748C10.0842 24.3955 11.0905 24.064 11.5539 23.2632Z" fill="#FFD400"/>
<path d="M5.64094 37.5033C6.56509 37.5509 7.27118 38.339 7.27118 39.2644C7.27118 40.1897 6.56509 40.9778 5.64094 41.0255L2.10022 41.2081C0.969426 41.2664 0 40.3967 0 39.2644C0 38.1321 0.969424 37.2623 2.10022 37.3207L5.64094 37.5033Z" fill="#FFD400"/>
<path d="M57.4965 19.4809C52.7028 15.0609 46.2989 12.361 39.2644 12.361C24.4061 12.361 12.361 24.4061 12.361 39.2644C12.361 40.3502 12.4253 41.421 12.5504 42.4731C16.8985 39.6299 22.0953 37.977 27.6782 37.977C29.9422 37.977 32.146 38.2495 34.257 38.7644C38.9301 29.4848 47.3308 22.3996 57.4965 19.4809Z" fill="#FFD400"/>
</g>
<path id="Union" d="M27.6782 90.115C14.1694 90.115 3.21838 79.1639 3.21838 65.6552C3.21838 52.1464 14.1694 41.1954 27.6782 41.1954C30.6073 41.1954 33.4161 41.7103 36.0192 42.6545C41.155 30.0924 53.4979 21.2414 67.908 21.2414C86.9269 21.2414 102.345 36.6593 102.345 55.6782C102.345 56.516 102.315 57.3468 102.256 58.1697C108.007 60.8179 112 66.6324 112 73.3793C112 82.6222 104.507 90.115 95.2644 90.115H27.6782Z" fill="white"/>
</g>
</svg>
