<svg width="112" height="106" viewBox="0 0 112 106" fill="none" xmlns="http://www.w3.org/2000/svg">
<g id="Group 78">
<path id="Union" d="M25.1834 70.9112C11.275 70.9112 0 59.6362 0 45.7278C0 31.8194 11.275 20.5444 25.1834 20.5444C28.1992 20.5444 31.0912 21.0745 33.7712 22.0466C39.059 9.11284 51.767 0 66.6035 0C86.1851 0 102.059 15.874 102.059 35.4556C102.059 36.3182 102.028 37.1737 101.968 38.0208C107.889 40.7474 112 46.7339 112 53.6805C112 63.1968 104.286 70.9112 94.7692 70.9112H25.1834Z" fill="white"/>
<g id="Vector">
<path d="M84.9543 84.7094L81.5148 77.5385L78.0752 84.7096C77.7339 85.3071 77.5385 86.0018 77.5385 86.7429C77.5385 88.9797 79.3187 90.7929 81.5148 90.7929C83.7109 90.7929 85.4911 88.9797 85.4911 86.7429C85.4911 86.0017 85.2956 85.307 84.9543 84.7094Z" fill="#64D2FF"/>
<path d="M73.0255 99.2896L69.5858 92.1183L66.1465 99.2889C65.805 99.8866 65.6095 100.581 65.6095 101.323C65.6095 103.56 67.3897 105.373 69.5858 105.373C71.7819 105.373 73.5621 103.56 73.5621 101.323C73.5621 100.582 73.3667 99.8871 73.0255 99.2896Z" fill="#64D2FF"/>
<path d="M61.0964 84.7095L57.6568 77.5385L54.2173 84.7094C53.876 85.307 53.6805 86.0017 53.6805 86.7429C53.6805 88.9797 55.4607 90.7929 57.6568 90.7929C59.8529 90.7929 61.6331 88.9797 61.6331 86.7429C61.6331 86.0018 61.4377 85.3071 61.0964 84.7095Z" fill="#64D2FF"/>
<path d="M49.8299 99.2891L46.3905 92.1183L42.9509 99.2894C42.6097 99.887 42.4142 100.582 42.4142 101.323C42.4142 103.56 44.1945 105.373 46.3905 105.373C48.5866 105.373 50.3669 103.56 50.3669 101.323C50.3669 100.582 50.1713 99.8867 49.8299 99.2891Z" fill="#64D2FF"/>
<path d="M37.9012 84.7097L34.4616 77.5385L31.0221 84.7092C30.6807 85.3069 30.4852 86.0016 30.4852 86.7429C30.4852 88.9797 32.2655 90.7929 34.4615 90.7929C36.6576 90.7929 38.4379 88.9797 38.4379 86.7429C38.4379 86.0018 38.2424 85.3073 37.9012 84.7097Z" fill="#64D2FF"/>
<path d="M25.972 99.2893L22.5325 92.1183L19.093 99.2893C18.7517 99.8869 18.5562 100.582 18.5562 101.323C18.5562 103.56 20.3365 105.373 22.5325 105.373C24.7286 105.373 26.5089 103.56 26.5089 101.323C26.5089 100.582 26.3134 99.8869 25.972 99.2893Z" fill="#64D2FF"/>
</g>
</g>
</svg>
