<svg width="112" height="85" viewBox="0 0 112 85" fill="none" xmlns="http://www.w3.org/2000/svg">
<g id="Group 92">
<path id="Union" d="M38.8717 44.6318C38.8717 43.7731 39.5678 43.0769 40.4265 43.0769C41.2852 43.0769 41.9814 43.7731 41.9814 44.6318V50.2469L44.6952 47.8346C45.3324 47.2681 46.3149 47.3195 46.8895 47.9495C47.464 48.5795 47.4132 49.5495 46.7759 50.116L41.9814 54.3779V61.3408L48.4147 57.6739L49.6685 51.8506C49.8472 51.0208 50.6729 50.491 51.5128 50.6672C52.3528 50.8435 52.8889 51.6591 52.7102 52.4888L52.0386 55.6084L56.5897 53.0143C57.3286 52.5931 58.2757 52.8469 58.705 53.5811C59.1344 54.3152 58.8835 55.2518 58.1446 55.673L53.224 58.4776L56.6427 59.5742C57.4599 59.8363 57.9073 60.7025 57.6419 61.5087C57.3766 62.315 56.499 62.7561 55.6817 62.4939L49.6001 60.5431L43.6523 63.9332L50.0694 67.5908L55.7531 65.7677C56.5703 65.5055 57.4479 65.9466 57.7133 66.7529C57.9787 67.5591 57.5313 68.4252 56.714 68.6874L53.6932 69.6564L58.213 72.2325C58.9519 72.6537 59.2029 73.5903 58.7735 74.3245C58.3442 75.0586 57.3971 75.3124 56.6582 74.8912L51.7065 72.0688L52.465 75.592C52.6437 76.4218 52.1076 77.2374 51.2677 77.4136C50.4277 77.5899 49.602 77.0601 49.4233 76.2303L48.0826 70.0033L41.9814 66.5257V73.9842L46.4649 77.9697C47.1022 78.5362 47.1531 79.5062 46.5785 80.1362C46.0039 80.7662 45.0215 80.8176 44.3842 80.2512L41.9814 78.1153V83.2736C41.9814 84.1323 41.2852 84.8284 40.4265 84.8284C39.5678 84.8284 38.8717 84.1323 38.8717 83.2736V77.6943L36.1981 80.0709C35.5608 80.6374 34.5783 80.5859 34.0038 79.9559C33.4292 79.3259 33.48 78.3559 34.1173 77.7894L38.8717 73.5632V66.6581L32.3383 70.382L31.0959 76.1527C30.9172 76.9825 30.0915 77.5122 29.2515 77.336C28.4116 77.1597 27.8755 76.3442 28.0541 75.5144L28.7145 72.4475L24.1949 75.0236C23.456 75.4447 22.5089 75.191 22.0795 74.4568C21.6502 73.7226 21.9011 72.786 22.64 72.3649L27.5919 69.5424L24.1217 68.4293C23.3045 68.1671 22.8571 67.301 23.1224 66.4948C23.3878 65.6885 24.2654 65.2474 25.0826 65.5096L31.2158 67.4769L37.433 63.9332L30.8833 60.2001L25.1484 62.0397C24.3311 62.3019 23.4535 61.8608 23.1882 61.0545C22.9228 60.2483 23.3702 59.3822 24.1874 59.12L27.2595 58.1346L22.7085 55.5406C21.9696 55.1195 21.7187 54.1829 22.148 53.4487C22.5774 52.7145 23.5244 52.4608 24.2633 52.882L29.1838 55.6865L28.4364 52.2154C28.2578 51.3856 28.7939 50.5701 29.6338 50.3938C30.4737 50.2176 31.2995 50.7474 31.4781 51.5771L32.8076 57.752L38.8717 61.2084V53.8853L34.4283 49.9355C33.791 49.369 33.7402 48.3991 34.3148 47.7691C34.8893 47.1391 35.8718 47.0876 36.5091 47.6541L38.8717 49.7543V44.6318Z" fill="#64D2FF"/>
<path id="Subtract" d="M61.0954 70.9112C60.8252 70.6355 60.5123 70.3922 60.1592 70.1917L60.0136 70.109C60.9578 69.0292 61.3378 67.4955 60.8471 66.0102C60.5913 65.2359 60.1366 64.5899 59.5606 64.1046C60.1016 63.627 60.5284 63.0036 60.7732 62.2627C61.3012 60.6645 60.8211 59.0104 59.7149 57.9258L60.0882 57.7138C62.1381 56.5498 62.8366 53.9427 61.6432 51.9098C60.4649 49.9026 57.884 49.2111 55.8601 50.3604L55.6296 50.4912C55.1701 49.0858 53.9819 47.9707 52.4508 47.6506C51.6529 47.4838 50.8523 47.5519 50.1284 47.8116C49.9996 47.0324 49.6502 46.2796 49.0751 45.6514C47.9331 44.404 46.212 43.9889 44.6876 44.4468V44.0245C44.6876 41.6711 42.7798 39.7633 40.4264 39.7633C38.073 39.7633 36.1652 41.6711 36.1652 44.0245V44.1687C34.7368 43.8734 33.1933 44.3162 32.1412 45.4653C31.5832 46.0748 31.2377 46.8015 31.1 47.556C30.3575 47.2747 29.5304 47.1963 28.7062 47.3687C27.0771 47.7092 25.8362 48.9498 25.4482 50.4824L24.9927 50.2238C22.9687 49.0746 20.3879 49.766 19.2096 51.7732C18.0161 53.8062 18.7146 56.4133 20.7646 57.5773L20.917 57.6638C19.9526 58.7453 19.5603 60.2943 20.0558 61.7941C20.3191 62.591 20.793 63.252 21.3931 63.7418C20.7608 64.2366 20.2609 64.9171 19.9877 65.7439C19.4549 67.3568 19.9488 69.0267 21.0768 70.1106L20.6936 70.3282C20.6144 70.3732 20.5373 70.4203 20.4622 70.4694C8.81047 68.2595 0 58.0225 0 45.7278C0 31.8194 11.275 20.5444 25.1834 20.5444C28.1992 20.5444 31.0912 21.0745 33.7712 22.0466C39.059 9.11284 51.767 0 66.6035 0C86.1851 0 102.059 15.874 102.059 35.4556C102.059 36.3182 102.028 37.1737 101.968 38.0208C107.889 40.7474 112 46.7339 112 53.6805C112 63.1968 104.286 70.9112 94.7692 70.9112H61.0954Z" fill="white"/>
</g>
</svg>
