<svg width="112" height="112" viewBox="0 0 112 112" fill="none" xmlns="http://www.w3.org/2000/svg">
<g id="Group 114">
<path id="Ellipse 17 (Stroke)" fill-rule="evenodd" clip-rule="evenodd" d="M103.955 58.5117C102.637 58.4438 101.63 57.3198 101.63 56C101.63 54.6802 102.637 53.5562 103.955 53.4883L109.005 53.2278C110.617 53.1446 112 54.3851 112 56C112 57.6149 110.617 58.8553 109.005 58.7722L103.955 58.5117ZM95.5214 33.1787C96.1824 34.3208 97.6176 34.7936 98.7929 34.1936L103.289 31.8982C104.732 31.1616 105.309 29.3865 104.497 27.9845C103.686 26.5825 101.864 26.2057 100.507 27.0892L96.2755 29.8426C95.1695 30.5623 94.8605 32.0366 95.5214 33.1787ZM78.8213 16.4786C79.9634 17.1395 81.4377 16.8305 82.1574 15.7245L84.9108 11.4933C85.7942 10.1356 85.4175 8.31406 84.0155 7.50276C82.6135 6.69145 80.8384 7.26836 80.1018 8.71101L77.8064 13.2071C77.2064 14.3824 77.6792 15.8176 78.8213 16.4786ZM56 10.3704C57.3198 10.3704 58.4438 9.36333 58.5117 8.04528L58.7722 2.9954C58.8553 1.38262 57.6149 0 56 0C54.3851 0 53.1446 1.38262 53.2278 2.9954L53.4883 8.04527C53.5562 9.36332 54.6802 10.3704 56 10.3704ZM33.1787 16.4786C34.3208 15.8176 34.7936 14.3824 34.1936 13.2071L31.8982 8.71102C31.1616 7.26837 29.3865 6.69145 27.9845 7.50276C26.5825 8.31407 26.2057 10.1356 27.0892 11.4933L29.8426 15.7245C30.5623 16.8305 32.0366 17.1395 33.1787 16.4786ZM16.4786 33.1787C17.1395 32.0366 16.8305 30.5623 15.7245 29.8426L11.4933 27.0892C10.1356 26.2058 8.31406 26.5825 7.50276 27.9845C6.69145 29.3865 7.26836 31.1616 8.71102 31.8982L13.2071 34.1936C14.3824 34.7936 15.8176 34.3208 16.4786 33.1787ZM8.04528 53.4883C9.36333 53.5562 10.3704 54.6802 10.3704 56C10.3704 57.3198 9.36332 58.4438 8.04527 58.5117L2.9954 58.7722C1.38262 58.8554 0 57.6149 0 56C0 54.3851 1.38262 53.1446 2.9954 53.2278L8.04528 53.4883ZM16.4786 78.8213C15.8176 77.6792 14.3824 77.2064 13.2071 77.8064L8.71102 80.1018C7.26837 80.8384 6.69145 82.6135 7.50276 84.0155C8.31406 85.4175 10.1356 85.7943 11.4933 84.9108L15.7245 82.1574C16.8305 81.4377 17.1395 79.9634 16.4786 78.8213ZM33.1787 95.5214C32.0366 94.8605 30.5623 95.1695 29.8426 96.2755L27.0892 100.507C26.2058 101.864 26.5825 103.686 27.9845 104.497C29.3865 105.309 31.1616 104.732 31.8982 103.289L34.1936 98.7929C34.7936 97.6176 34.3208 96.1824 33.1787 95.5214ZM56 101.63C54.6802 101.63 53.5562 102.637 53.4883 103.955L53.2278 109.005C53.1446 110.617 54.3851 112 56 112C57.6149 112 58.8554 110.617 58.7722 109.005L58.5117 103.955C58.4438 102.637 57.3198 101.63 56 101.63ZM78.8213 95.5214C77.6792 96.1824 77.2064 97.6176 77.8064 98.7929L80.1018 103.289C80.8384 104.732 82.6135 105.309 84.0155 104.497C85.4175 103.686 85.7943 101.864 84.9108 100.507L82.1574 96.2755C81.4377 95.1695 79.9634 94.8605 78.8213 95.5214ZM95.5214 78.8213C94.8605 79.9634 95.1695 81.4377 96.2755 82.1574L100.507 84.9108C101.864 85.7942 103.686 85.4175 104.497 84.0155C105.309 82.6135 104.732 80.8384 103.289 80.1018L98.7929 77.8064C97.6176 77.2064 96.1824 77.6792 95.5214 78.8213Z" fill="#FFD400"/>
<path id="Ellipse 17" d="M94.3704 56C94.3704 77.1914 77.1914 94.3704 56 94.3704C34.8086 94.3704 17.6296 77.1914 17.6296 56C17.6296 34.8086 34.8086 17.6296 56 17.6296C77.1914 17.6296 94.3704 34.8086 94.3704 56Z" fill="#FFD400"/>
</g>
</svg>
