<svg width="112" height="105" viewBox="0 0 112 105" fill="none" xmlns="http://www.w3.org/2000/svg">
<g id="Group 57">
<path id="Vector 2" d="M81.2914 46.3905H74.2733C72.9693 46.3905 71.8146 47.2329 71.4165 48.4747L64.8766 68.876C64.256 70.8121 65.7003 72.7918 67.7334 72.7918H71.3153C72.4603 72.7918 73.3715 73.7511 73.3127 74.8946L72.2038 96.4314C72.1761 96.9689 72.9006 97.1647 73.1474 96.6865L88.5343 66.8757C89.5649 64.879 88.1154 62.4997 85.8684 62.4997H82.8733C81.5094 62.4997 80.5455 61.1644 80.9751 59.8699L84.1388 50.3353C84.7831 48.3934 83.3374 46.3905 81.2914 46.3905Z" fill="#FFD400"/>
<path id="Subtract" d="M90.1803 70.9112L92.2406 66.9196C94.0619 63.3909 91.5004 59.1862 87.5293 59.1862H84.6932L87.7252 50.0484C88.8639 46.6167 86.309 43.0769 82.6932 43.0769H73.5351C71.2305 43.0769 69.1899 44.5657 68.4864 46.7603L61.2978 69.1852C61.1122 69.7641 61.0311 70.3452 61.0418 70.9112L25.1834 70.9112C11.275 70.9112 0 59.6362 0 45.7278C0 31.8194 11.275 20.5444 25.1834 20.5444C28.1992 20.5444 31.0912 21.0745 33.7712 22.0466C39.059 9.11283 51.7671 0 66.6036 0C86.1852 0 102.059 15.874 102.059 35.4556C102.059 36.3182 102.028 37.1737 101.968 38.0208C107.889 40.7474 112 46.7339 112 53.6805C112 63.1967 104.285 70.9112 94.7692 70.9112H90.1803Z" fill="white"/>
<g id="Vector">
<path d="M60.4332 97.9631L56.994 90.7929L53.5544 97.9641C53.2132 98.5617 53.0178 99.2562 53.0178 99.9973C53.0178 102.234 54.798 104.047 56.9941 104.047C59.1902 104.047 60.9704 102.234 60.9704 99.9973C60.9704 99.2558 60.7748 98.5609 60.4332 97.9631Z" fill="#64D2FF"/>
<path d="M48.5048 84.7098L45.0651 77.5385L41.6259 84.7088C41.2843 85.3066 41.0887 86.0015 41.0887 86.7429C41.0887 88.9796 42.869 90.7929 45.065 90.7929C47.2611 90.7929 49.0414 88.9796 49.0414 86.7429C49.0414 86.0019 48.846 85.3073 48.5048 84.7098Z" fill="#64D2FF"/>
<path d="M36.5756 97.9638L33.1361 90.7929L29.6968 97.9634C29.3554 98.5611 29.1598 99.256 29.1598 99.9973C29.1598 102.234 30.9401 104.047 33.1361 104.047C35.3322 104.047 37.1124 102.234 37.1124 99.9973C37.1124 99.2561 36.917 98.5614 36.5756 97.9638Z" fill="#64D2FF"/>
<path d="M24.6464 84.7091L21.207 77.5385L17.7675 84.7095C17.4262 85.3071 17.2307 86.0017 17.2307 86.7429C17.2307 88.9796 19.011 90.7929 21.2071 90.7929C23.4031 90.7929 25.1834 88.9796 25.1834 86.7429C25.1834 86.0016 24.9878 85.3068 24.6464 84.7091Z" fill="#64D2FF"/>
</g>
</g>
</svg>
